<?xml version="1.0" encoding="UTF-8"?>
<svg id="Capa_2" data-name="Capa 2" xmlns="http://www.w3.org/2000/svg" viewBox="0 0 13.33201 16">
  <defs>
    <style>
      .cls-1 {
        fill: #00a1aa;
      }

      .cls-2 {
        fill: #58c0da;
      }

      .cls-3 {
        fill: #007980;
      }
    </style>
  </defs>
  <g id="Capa_1-2" data-name="Capa 1">
    <g>
      <g>
        <path class="cls-3" d="m5.49682,15.56486c0,.39499.27579.54954.61312.34443l3.20074-1.94099c.33698-.20461.61295-.6948.61295-1.09031v-3.62312c0-.39433-.28609-.56781-.63579-.38503l-3.15456,1.64272c-.35052.18279-.63646.65321-.63646,1.04889v4.00341Z"/>
        <path class="cls-1" d="m4.42716,15.56486c0,.39499-.27664.54954-.61347.34443l-3.20039-1.94099c-.33683-.20461-.6133-.6948-.6133-1.09031v-3.62312c0-.39433.28609-.56781.63629-.38503l3.15491,1.64272c.34985.18279.63596.65321.63596,1.04889v4.00341Z"/>
        <path class="cls-2" d="m5.59794,5.26567c-.35002-.1821-.92173-.1821-1.27208,0l-3.68957,1.92359c-.35019.1821-.35019.48056,0,.66301l3.68957,1.92359c.35035.1821.92206.1821,1.27208,0l3.6899-1.92359c.35002-.18245.35002-.48091,0-.66301l-3.6899-1.92359Z"/>
      </g>
      <rect class="cls-1" y="1.72795" width="13.33201" height=".82026"/>
      <path class="cls-1" d="m7.97925,0v4.64797c0,.26192.21424.47651.47633.47651h.32601c.10197.00727.46669.05799.6723.40818.00997.01657.01844.02857.02739.04176l.44302.75955.47278-.80504c.20697-.34647.56881-.39719.67061-.40446h.32415c.26192,0,.47616-.21458.47616-.47651V0h-3.88876Z"/>
    </g>
  </g>
</svg>